<svg width="14" height="15" viewBox="0 0 14 15" fill="none" xmlns="http://www.w3.org/2000/svg">
<path d="M8.27466 10.9919C7.97332 11.2846 7.67198 11.5773 7.37064 11.8699C6.88199 12.3415 6.45034 12.8699 5.89653 13.2683C4.77262 14.0732 3.53469 14.2358 2.27233 13.6829C0.741207 13.0081 -0.0243543 11.7805 7.85496e-05 10.1138C0.0163671 9.17888 0.382859 8.35774 1.04255 7.69107C1.99542 6.72359 2.92387 5.71546 3.95005 4.82115C5.60334 3.37399 8.2095 3.75611 9.423 5.58538C9.51259 5.71546 9.52888 5.80489 9.39042 5.92684C9.03207 6.26018 8.69816 6.60977 8.34796 6.95123C8.14435 7.14636 8.1362 7.14636 8.03033 6.89432C7.52538 5.71546 5.96168 5.40652 5.04953 6.30896C4.16994 7.17888 3.29036 8.05692 2.41078 8.93497C1.88141 9.46343 1.72666 10.1057 1.93841 10.8049C2.15017 11.5041 2.64697 11.935 3.36366 12.0813C3.99892 12.2114 4.56087 12.0244 5.02509 11.5773C5.31014 11.309 5.5789 11.0244 5.86395 10.748C5.91282 10.6992 5.95354 10.6423 6.05127 10.6748C6.72725 10.9268 7.4358 11 8.15249 10.9268C8.18507 10.9268 8.21765 10.9268 8.25022 10.935C8.25022 10.9512 8.26651 10.9756 8.27466 10.9919Z" fill="#999999"/>
<path d="M5.72545 2.99188C5.96978 2.7561 6.2141 2.5122 6.45843 2.27643C6.99595 1.7561 7.47646 1.187 8.071 0.731712C9.36594 -0.276418 11.345 -0.227637 12.5992 0.813013C13.5602 1.60976 14.0245 2.62602 13.9919 3.85366C13.9674 4.8374 13.5684 5.6748 12.868 6.37399C11.964 7.27643 11.0681 8.17887 10.1478 9.05692C8.53522 10.6016 5.80689 10.2764 4.58525 8.42277C4.48752 8.27643 4.46309 8.17887 4.61783 8.03253C4.97617 7.70732 5.30195 7.35773 5.644 7.01627C5.83132 6.82927 5.83947 6.8374 5.94534 7.07318C6.49101 8.29269 8.02213 8.56911 8.97501 7.62602C9.8383 6.77236 10.6935 5.91871 11.5486 5.05692C12.4608 4.14635 12.306 2.79675 11.231 2.11383C10.5469 1.68293 9.60212 1.78862 8.99944 2.37399C8.71439 2.65041 8.42934 2.93496 8.15244 3.21952C8.09543 3.27643 8.05471 3.33334 7.94883 3.29269C7.27286 3.04879 6.5806 2.95936 5.87204 3.04066C5.83947 3.04066 5.80689 3.04066 5.77431 3.04066C5.74988 3.0244 5.73359 3.00814 5.72545 2.99188Z" fill="#999999"/>
</svg>
