<svg width="40" height="40" viewBox="0 0 40 40" fill="none" xmlns="http://www.w3.org/2000/svg">
<path d="M14 16.5984C14.1476 16.1384 14.4675 16 14.8998 16C18.3303 16.0075 21.7644 16.0037 25.1949 16.0037C25.7643 16.0037 26.0806 16.4114 25.9822 17.006C25.9225 17.3613 25.6342 17.6043 25.2581 17.6043C24.1931 17.6081 23.1281 17.6043 22.0596 17.6043C19.666 17.6081 17.2688 17.6006 14.8752 17.6118C14.4394 17.6118 14.1406 17.4585 14 17.0097C14 16.8714 14 16.733 14 16.5984Z" fill="#9E9E9E"/>
<path d="M20.0074 20.8018C18.9114 20.8018 17.8122 20.8018 16.7162 20.8018C16.2135 20.8018 15.9418 20.4316 16.0105 19.8444C16.048 19.5041 16.2572 19.2386 16.5476 19.2199C17.016 19.1937 17.4844 19.1975 17.9496 19.1975C19.7139 19.1975 21.475 19.1975 23.2393 19.2012C23.3486 19.2012 23.461 19.2087 23.5609 19.2461C23.8576 19.3508 24.0324 19.7061 23.995 20.095C23.9575 20.4914 23.742 20.7756 23.4235 20.7868C22.8146 20.8093 22.2057 20.8018 21.5968 20.8018C21.0691 20.8055 20.5383 20.8018 20.0074 20.8018Z" fill="#9E9E9E"/>
<path d="M20.01 22.3949C20.5034 22.3949 20.9991 22.3949 21.4925 22.3949C21.8059 22.3949 21.9976 22.6978 22 23.1877C22.0023 23.6701 21.8036 23.9955 21.4949 23.9955C20.5011 23.9992 19.5096 23.9992 18.5158 23.9955C18.1323 23.9918 17.9078 23.4607 18.0364 22.8848C18.1042 22.5819 18.2726 22.3986 18.4877 22.3986C18.9975 22.3949 19.5049 22.3949 20.01 22.3949Z" fill="#9E9E9E"/>
</svg>
