<svg width="17" height="18" viewBox="0 0 17 18" fill="none" xmlns="http://www.w3.org/2000/svg">
<path d="M9.43467 0.794556C10.6411 0.794556 11.8165 0.794556 12.992 0.794556C13.6858 0.794556 14.3751 0.794556 15.0689 0.794556C16.1339 0.798864 16.9558 1.59596 16.9603 2.63865C16.9647 4.40949 16.9603 6.18465 16.9603 7.9555C16.9603 8.01151 16.9514 8.06752 16.947 8.14508C16.6377 8.14508 16.3372 8.14508 16.0367 8.14508C13.9244 8.14508 11.8121 8.14077 9.69981 8.14938C9.47886 8.14938 9.41699 8.09768 9.41699 7.87794C9.42583 5.59006 9.42141 3.29787 9.42141 1.00999C9.42141 0.945358 9.43025 0.885037 9.43467 0.794556ZM10.8488 2.17763C10.8399 2.22933 10.8311 2.26811 10.8311 2.31119C10.8311 3.74166 10.8311 5.16781 10.8267 6.59828C10.8267 6.76631 10.9106 6.77924 11.0432 6.77924C12.4705 6.77493 13.9023 6.77924 15.3296 6.77924C15.4003 6.77924 15.471 6.77062 15.5418 6.76631C15.5462 6.7103 15.555 6.67152 15.555 6.63706C15.555 5.32292 15.555 4.00879 15.555 2.69466C15.555 2.34135 15.3694 2.16901 15.0026 2.16901C13.6769 2.16901 12.3512 2.16901 11.0255 2.16901C10.9725 2.1647 10.915 2.17332 10.8488 2.17763Z" fill="#9E9E9E"/>
<path d="M7.52562 17.331C7.22955 17.331 6.94673 17.331 6.65949 17.331C5.07747 17.331 3.49546 17.3353 1.91344 17.331C0.817522 17.3267 0.00441904 16.5296 0 15.4653C0 13.716 0 11.9624 0 10.2131C0 10.1485 0 10.0839 0 9.9977C0.0707046 9.99339 0.132571 9.98478 0.194438 9.98478C2.56304 9.98478 4.93607 9.98478 7.30467 9.98047C7.49027 9.98047 7.53888 10.0322 7.53888 10.2088C7.53446 12.5269 7.53446 14.8449 7.53446 17.1629C7.53888 17.2103 7.53446 17.2577 7.52562 17.331ZM6.11595 15.9608C6.12037 15.8833 6.12921 15.8316 6.12921 15.7842C6.12921 14.371 6.12479 12.9534 6.13363 11.5402C6.13363 11.3592 6.04524 11.3506 5.90384 11.3506C4.47649 11.3549 3.04472 11.3506 1.61737 11.3549C1.55108 11.3549 1.48922 11.3635 1.41409 11.3678C1.40967 11.4454 1.40525 11.5057 1.40525 11.5703C1.40525 12.85 1.40525 14.1254 1.40525 15.405C1.40525 15.7971 1.5776 15.9651 1.98857 15.9651C3.07123 15.9651 4.1539 15.9651 5.23656 15.9651C5.5238 15.9608 5.81103 15.9608 6.11595 15.9608Z" fill="#9E9E9E"/>
<path d="M7.53934 0.807094C7.53934 1.69036 7.53934 2.55209 7.53934 3.41381C7.53934 4.90459 7.53492 6.39969 7.54376 7.89047C7.54376 8.07574 7.50841 8.14899 7.29188 8.14899C4.92328 8.14037 2.55026 8.14468 0.181655 8.14468C0.133046 8.14468 0.0800172 8.14037 0.0181508 8.13606C0.0137318 8.06712 0.0048937 8.00249 0.0048937 7.94217C0.0048937 6.16271 0.00047467 4.38325 0.0048937 2.60379C0.0048937 1.61712 0.835672 0.802785 1.84321 0.798477C3.68153 0.789859 5.52427 0.794168 7.36258 0.794168C7.41119 0.794168 7.46422 0.802785 7.53934 0.807094ZM1.40573 6.75299C1.49411 6.76161 1.56039 6.77023 1.62226 6.77023C3.05844 6.77023 4.49463 6.76592 5.9264 6.77454C6.09874 6.77454 6.13409 6.71422 6.13409 6.56341C6.12967 5.18035 6.13409 3.79297 6.13409 2.4099C6.13409 2.33235 6.12525 2.2591 6.12083 2.16431C6.02362 2.16431 5.95291 2.16431 5.87779 2.16431C4.59185 2.16431 3.30149 2.16431 2.01555 2.16431C1.57365 2.16431 1.41015 2.32804 1.41015 2.76752C1.41015 4.01702 1.41015 5.26652 1.41015 6.51171C1.40573 6.58927 1.40573 6.66682 1.40573 6.75299Z" fill="#9E9E9E"/>
<path d="M10.8267 12.7209C10.3406 12.7209 9.89425 12.7209 9.42141 12.7209C9.42141 12.6089 9.42141 12.5098 9.42141 12.4107C9.42141 11.6653 9.42141 10.9199 9.41699 10.1702C9.41699 10.0409 9.44351 9.97632 9.59817 9.97632C11.0786 9.98063 12.5589 9.98063 14.0349 9.98063C14.057 9.98063 14.0747 9.98924 14.1144 9.99786C14.1144 10.4373 14.1144 10.8768 14.1144 11.3508C13.8935 11.3508 13.677 11.3508 13.4604 11.3508C12.665 11.3508 11.8696 11.3551 11.0741 11.3465C10.8841 11.3422 10.8134 11.3939 10.8222 11.5877C10.8399 11.9583 10.8267 12.3331 10.8267 12.7209Z" fill="#9E9E9E"/>
<path d="M16.9999 14.5994C16.9557 15.0906 16.9778 15.5861 16.8585 16.0471C16.664 16.8183 15.9084 17.3224 15.0953 17.3267C14.2203 17.331 13.3454 17.3267 12.466 17.3267C12.3997 17.3267 12.3378 17.3181 12.2627 17.3138C12.2627 16.8614 12.2627 16.4219 12.2627 15.9566C12.6339 15.9566 12.9918 15.9566 13.3498 15.9566C13.8933 15.9566 14.4413 15.9566 14.9848 15.9566C15.3825 15.9566 15.5504 15.7886 15.5549 15.4094C15.5593 15.1423 15.5549 14.8795 15.5549 14.5951C16.0233 14.5994 16.4784 14.5994 16.9999 14.5994Z" fill="#9E9E9E"/>
<path d="M16.9427 12.7252C16.4787 12.7252 16.0324 12.7252 15.5684 12.7252C15.5684 11.816 15.5684 10.9155 15.5684 9.9978C16.0235 9.9978 16.4743 9.9978 16.9427 9.9978C16.9427 10.8983 16.9427 11.7988 16.9427 12.7252Z" fill="#9E9E9E"/>
<path d="M10.8177 17.3181C10.3537 17.3181 9.89858 17.3181 9.43457 17.3181C9.43457 16.4047 9.43457 15.5042 9.43457 14.5951C9.89858 14.5951 10.3537 14.5951 10.8177 14.5951C10.8177 15.5085 10.8177 16.409 10.8177 17.3181Z" fill="#9E9E9E"/>
<path d="M14.119 12.738C14.119 13.3541 14.119 13.9487 14.119 14.5562C13.5047 14.5562 12.8905 14.5562 12.2497 14.5562C12.2497 14.1469 12.2453 13.7376 12.2497 13.3326C12.2541 13.143 12.2011 12.8931 12.3027 12.781C12.3911 12.6863 12.6607 12.7423 12.8507 12.7423C13.2749 12.738 13.6903 12.738 14.119 12.738Z" fill="#9E9E9E"/>
<path d="M12.2495 3.56494C12.8903 3.56494 13.5001 3.56494 14.1188 3.56494C14.1188 4.16815 14.1188 4.76273 14.1188 5.38748C13.8713 5.38748 13.6238 5.38748 13.3764 5.38748C13.0582 5.38748 12.7444 5.38748 12.4263 5.38748C12.3335 5.38748 12.2495 5.38748 12.2495 5.25822C12.2539 4.6981 12.2495 4.14229 12.2495 3.56494Z" fill="#9E9E9E"/>
<path d="M2.83252 14.5562C2.83252 13.953 2.83252 13.3628 2.83252 12.738C2.96509 12.738 3.09324 12.738 3.22139 12.738C3.65446 12.738 4.09194 12.738 4.525 12.738C4.63106 12.738 4.7106 12.7467 4.70618 12.8845C4.70177 13.436 4.70618 13.9875 4.70618 14.5562C4.0831 14.5562 3.46886 14.5562 2.83252 14.5562Z" fill="#9E9E9E"/>
<path d="M2.84131 3.56494C3.47323 3.56494 4.07864 3.56494 4.71057 3.56494C4.71057 4.14229 4.71498 4.70672 4.70615 5.26684C4.70615 5.30562 4.63102 5.37886 4.59125 5.37886C4.01236 5.38748 3.43346 5.38317 2.84131 5.38317C2.84131 4.77135 2.84131 4.17245 2.84131 3.56494Z" fill="#9E9E9E"/>
</svg>
