<svg width="120" height="23" viewBox="0 0 120 23" fill="none" xmlns="http://www.w3.org/2000/svg">
<path d="M0 6.52289C0.176545 6.06121 0.554855 5.96402 1.00883 6.03691C1.4628 6.10981 1.71501 5.93972 1.84111 5.50234C1.99244 4.91916 2.24464 4.38458 2.47163 3.80141C2.59773 3.43692 2.87516 3.24253 3.27869 3.24253C4.59016 3.19393 4.61539 3.24253 4.61539 4.48178C4.61539 4.99206 4.61539 5.47804 4.61539 6.01262C5.32157 6.01262 6.00252 6.01262 6.68348 6.01262C7.23833 6.01262 7.41488 6.18271 7.4401 6.69299C7.46532 7.00887 7.4401 7.30046 7.4401 7.61635C7.41488 8.00513 7.21311 8.19952 6.80958 8.19952C6.1034 8.19952 5.39723 8.19952 4.64061 8.19952C4.64061 8.36962 4.61539 8.51541 4.61539 8.63691C4.61539 10.3135 4.61539 11.9902 4.64061 13.6668C4.64061 13.9341 4.66583 14.2257 4.74149 14.493C4.89282 15.1733 5.47289 15.5864 6.27995 15.635C6.55738 15.6593 6.86003 15.635 7.13746 15.6593C7.46532 15.6836 7.66709 15.8537 7.69231 16.1939C7.69231 16.5827 7.69231 16.9472 7.69231 17.3359C7.69231 17.6275 7.51576 17.8462 7.21312 17.8462C6.15385 17.8219 5.04414 17.8705 4.01009 17.6761C2.59774 17.4088 1.71501 16.2425 1.66457 14.8574C1.61412 12.8406 1.61413 10.7995 1.58891 8.7827C1.58891 8.61261 1.58891 8.46681 1.58891 8.24812C1.23582 8.24812 0.958389 8.24812 0.680961 8.24812C0.302651 8.24812 0.100887 8.05373 0.0756667 7.68925C0.0756667 7.44626 0.0252207 7.22756 0 6.98457C0 6.81448 0 6.66869 0 6.52289Z" fill="#3E00A3"/>
<path d="M25.4251 15.5678C25.6998 15.5678 25.9995 15.5678 26.2992 15.5678C26.6738 15.5926 26.8985 15.7907 26.8985 16.1621C26.8985 16.5336 26.8985 16.9298 26.8985 17.3013C26.8736 17.6233 26.6738 17.8214 26.3491 17.8214C24.6759 17.8214 23.0277 17.8214 21.3545 17.8214C20.9799 17.8214 20.8051 17.5985 20.7801 17.2518C20.7552 16.9794 20.7801 16.707 20.7801 16.4346C20.7801 15.6916 20.955 15.543 21.7041 15.543C21.9039 15.543 22.1287 15.543 22.3784 15.543C22.3784 13.0665 22.3784 10.6396 22.3784 8.13836C22.0787 8.13836 21.7791 8.13836 21.4794 8.13836C21.0049 8.1136 20.8051 7.91548 20.7801 7.44495C20.7801 7.12301 20.7552 6.80107 20.7801 6.45436C20.8051 6.08289 21.0049 5.86001 21.4045 5.86001C22.3784 5.86001 23.3524 5.86001 24.3263 5.86001C24.7758 5.86001 24.9756 6.05813 24.9756 6.52866C24.9756 6.80107 24.9756 7.07348 25.0006 7.34589C25.0006 7.34589 25.0256 7.37066 25.0505 7.39542C25.4751 6.75154 26.0245 6.20671 26.7487 5.90954C29.1711 4.94371 32.6423 5.76095 32.967 9.57472C33.1168 11.3825 33.0419 13.1904 33.0419 14.9982C33.0419 15.1716 33.0419 15.3449 33.0419 15.5678C33.3665 15.5678 33.6412 15.5678 33.9159 15.5678C34.4404 15.5926 34.6152 15.7659 34.6152 16.286C34.6152 16.6079 34.6152 16.9298 34.6152 17.2766C34.6152 17.6233 34.4154 17.8461 34.0658 17.8461C32.3926 17.8461 30.7194 17.8461 29.0212 17.8461C28.6966 17.8461 28.4968 17.648 28.4718 17.3013C28.4718 16.9546 28.4718 16.5831 28.4718 16.2364C28.4718 15.8154 28.6466 15.6173 29.0962 15.5926C29.3958 15.5678 29.6955 15.5926 30.0202 15.5926C30.0202 15.3449 30.0202 15.1468 30.0202 14.9487C30.0202 13.4628 30.0451 11.9521 30.0202 10.4662C29.9952 8.80701 28.6716 7.81642 27.0234 8.21266C26.1244 8.43554 25.4251 9.20325 25.3752 10.2434C25.3003 12.0017 25.3252 13.7352 25.3003 15.4935C25.3502 15.4687 25.3502 15.4687 25.4251 15.5678Z" fill="#3E00A3"/>
<path d="M39.6398 7.36793C40.1362 6.77342 40.6574 6.25322 41.3771 5.9312C43.7101 4.94035 47.284 5.70826 47.5819 9.57257C47.7308 11.3809 47.6563 13.1892 47.6563 14.9975C47.6563 15.1709 47.6563 15.3443 47.6563 15.5672C47.9789 15.5672 48.2768 15.5424 48.5746 15.5672C49.0462 15.592 49.2199 15.7901 49.2199 16.236C49.2447 16.5828 49.2199 16.9296 49.2199 17.2516C49.2199 17.5984 49.0213 17.8214 48.6739 17.8214C47.011 17.8214 45.3482 17.8214 43.6605 17.8214C43.3378 17.8214 43.1393 17.6232 43.1145 17.2764C43.1145 16.9296 43.1145 16.558 43.1145 16.2112C43.1145 15.7901 43.2882 15.592 43.7349 15.5672C44.0328 15.5424 44.3306 15.5672 44.6284 15.5672C44.6284 15.4186 44.6532 15.3195 44.6532 15.2204C44.6532 13.635 44.678 12.0497 44.6532 10.4891C44.6284 8.77989 43.313 7.78904 41.675 8.18538C40.7815 8.40832 40.0866 9.201 40.0369 10.2414C39.9625 11.7772 39.9873 13.3378 39.9625 14.8984C39.9625 15.0965 39.9625 15.2947 39.9625 15.5672C40.2851 15.5672 40.5829 15.5672 40.8808 15.5672C41.2779 15.5672 41.5261 15.7901 41.5261 16.2112C41.5261 16.5828 41.5261 16.9544 41.5012 17.3259C41.4764 17.6727 41.2779 17.8461 40.9552 17.8461C39.2924 17.8461 37.6543 17.8461 35.9914 17.8461C35.5943 17.8461 35.4454 17.5984 35.4206 17.2269C35.3958 16.9048 35.3958 16.5828 35.4206 16.236C35.4454 15.7901 35.6192 15.592 36.0659 15.5672C36.3637 15.5424 36.6616 15.5672 36.9842 15.5672C36.9842 13.0901 36.9842 10.6625 36.9842 8.16061C36.6864 8.16061 36.3886 8.16061 36.0907 8.16061C35.6192 8.13583 35.4206 7.93767 35.3958 7.46701C35.3958 7.14499 35.371 6.82296 35.3958 6.47617C35.4206 6.1046 35.6192 5.88166 36.0163 5.88166C36.9842 5.88166 37.9521 5.88166 38.9201 5.88166C39.3668 5.88166 39.5654 6.07983 39.5654 6.55048C39.6646 6.84773 39.6398 7.12022 39.6398 7.36793Z" fill="#3E00A3"/>
<path d="M61.3597 15.8903C61.7575 15.8903 62.0757 15.8903 62.394 15.8903C62.8183 15.9159 63.057 16.1205 63.057 16.5298C63.0836 16.8879 63.0836 17.2716 63.057 17.6298C63.0305 18.0135 62.8183 18.2437 62.3675 18.2437C61.3066 18.2437 60.2723 18.2437 59.2114 18.2437C58.7605 18.2437 58.5484 18.0391 58.5219 17.6042C58.4953 17.3995 58.5219 17.1949 58.5219 16.9135C58.2301 17.1949 57.9914 17.4507 57.6997 17.6298C55.7636 18.8321 53.748 18.9344 51.7323 17.9367C50.4062 17.2972 49.9289 16.0949 50.0084 14.688C50.088 13.281 50.8306 12.2322 52.1301 11.6439C53.9601 10.7997 55.8432 10.9276 57.7527 11.4392C57.8853 11.4904 58.0445 11.516 58.2036 11.5671C58.2036 10.9532 58.2566 10.3904 58.2036 9.82764C58.071 8.62534 57.3284 7.96024 55.9227 7.8835C55.2862 7.85792 54.6232 8.0114 53.9867 8.11372C53.8806 8.1393 53.748 8.31837 53.748 8.44627C53.7214 8.77882 53.748 9.11137 53.7214 9.4695C53.6949 9.8788 53.4827 10.109 53.0584 10.109C52.528 10.1346 51.9975 10.1346 51.4671 10.109C51.0428 10.0834 50.8306 9.85322 50.8306 9.44392C50.8306 8.8044 50.8041 8.1393 50.8571 7.49979C50.8836 7.24398 51.0428 6.88585 51.2549 6.78352C53.6949 5.45332 56.241 5.09519 58.8666 6.16958C60.511 6.83468 61.3331 8.1393 61.3597 9.85322C61.4127 11.695 61.3862 13.5368 61.3862 15.3531C61.3597 15.5066 61.3597 15.6601 61.3597 15.8903ZM55.4453 16.2228V16.1972C55.6045 16.1972 55.7901 16.1972 55.9493 16.1972C57.3284 16.0949 58.2566 15.1229 58.2036 13.8182C58.2036 13.6903 58.0975 13.4857 57.9914 13.4601C56.904 12.9997 55.7901 12.795 54.6232 13.0764C53.7214 13.281 53.191 13.8694 53.191 14.6112C53.2175 15.4042 53.7214 15.9414 54.6497 16.1461C54.9149 16.1972 55.1801 16.1972 55.4453 16.2228Z" fill="#3E00A3"/>
<path d="M11.7154 12.796C11.9405 15.2666 13.6909 16.7078 16.1416 15.9357C16.6917 15.7556 17.1918 15.3953 17.6669 15.0607C18.1921 14.6747 18.3671 14.6489 18.8423 15.1379C19.0173 15.3181 19.2174 15.4982 19.3924 15.7041C19.7675 16.1416 19.7425 16.4505 19.3174 16.8365C17.942 18.0718 16.3166 18.6638 14.4911 18.6123C11.1153 18.5351 8.88969 16.399 8.51459 12.9504C8.36455 11.4062 8.51459 9.93926 9.18976 8.54952C9.88994 7.10831 10.9902 6.20755 12.4906 5.79577C13.916 5.40973 15.3163 5.43547 16.6667 6.0274C18.5422 6.85095 19.4174 8.47231 19.8175 10.4282C19.9175 10.943 19.9675 11.4834 19.9926 11.9981C20.0426 12.6158 19.8425 12.8217 19.2174 12.8217C17.0168 12.8217 14.8162 12.8217 12.6156 12.8217C12.3156 12.796 12.0405 12.796 11.7154 12.796ZM16.7667 10.7628C16.4666 8.47231 15.3163 7.77744 14.041 7.85465C12.7157 7.93186 11.8404 9.08998 11.7154 10.7628C13.3908 10.7628 15.0663 10.7628 16.7667 10.7628Z" fill="#3E00A3"/>
<path d="M72.3127 15.9215C71.6933 16.9804 70.9501 17.7192 69.8601 18.0148C67.7543 18.6058 65.5246 17.9409 64.5337 15.5767C63.617 13.3849 63.617 11.1192 64.5337 8.92742C65.2026 7.32667 66.4413 6.41547 68.2002 6.31696C69.9592 6.21845 71.3217 6.90801 72.2136 8.43488C72.2384 8.48413 72.2879 8.53339 72.387 8.68115C72.387 8.0901 72.4118 7.62219 72.387 7.12965C72.3622 6.73562 72.4861 6.58786 72.9073 6.58786C73.5762 6.61249 74.2451 6.61249 74.9387 6.58786C75.2608 6.58786 75.3599 6.73562 75.3847 7.03114C75.3847 7.35129 75.2856 7.52368 74.9387 7.52368C74.468 7.52368 73.9725 7.52368 73.4771 7.52368C73.4771 7.74533 73.4771 7.89309 73.4771 8.06547C73.4771 11.267 73.4771 14.4685 73.4771 17.67C73.4771 18.8028 73.2541 19.8618 72.5356 20.7976C71.7677 21.8073 70.7272 22.2998 69.5132 22.423C67.8286 22.5954 66.2926 22.2013 65.0291 21.0192C64.6328 20.6498 64.6823 20.2558 65.2026 20.0588C65.3264 20.0095 65.5742 20.1573 65.698 20.2804C66.8872 21.364 68.2745 21.6842 69.8353 21.3394C71.1979 21.0439 72.1888 19.911 72.3127 18.458C72.3622 17.67 72.3127 16.8327 72.3127 15.9215ZM72.4366 12.2028C72.2879 11.4147 72.2136 10.602 71.9659 9.83861C71.4704 8.23786 70.2812 7.32667 68.7205 7.27741C67.234 7.22816 65.9953 8.11473 65.4255 9.71548C64.831 11.464 64.831 13.2371 65.5246 14.961C66.0697 16.3401 67.0854 17.1528 68.6214 17.1774C70.1821 17.2021 71.1979 16.3648 71.7924 15.0103C72.2384 14.1483 72.3375 13.1879 72.4366 12.2028Z" fill="#45C299"/>
<path d="M96.5623 21.553C96.5623 16.8871 96.5623 12.295 96.5623 7.60455C96.094 7.60455 95.6258 7.60455 95.1575 7.60455C94.7138 7.60455 94.6152 7.4572 94.6399 7.01518C94.6645 6.7696 94.7878 6.64682 95.0342 6.64682C95.749 6.64682 96.4637 6.64682 97.1785 6.64682C97.4743 6.64682 97.5975 6.7696 97.5729 7.06429C97.5729 7.6291 97.5729 8.19392 97.5729 8.68506C98.0165 8.19392 98.4109 7.60455 98.9284 7.18707C100.703 5.73821 104.104 5.95922 105.361 8.75873C106.446 11.1653 106.421 13.621 105.263 16.0276C103.858 18.9499 99.4707 19.0973 97.844 16.2241C97.8193 16.175 97.77 16.1259 97.6714 16.0031C97.6714 17.894 97.6714 19.6866 97.6714 21.5284C98.4108 21.5284 99.1256 21.553 99.865 21.5284C100.21 21.5284 100.358 21.6266 100.358 21.995C100.358 22.3388 100.235 22.4616 99.8897 22.4616C98.2876 22.437 96.6856 22.437 95.0835 22.4616C94.7385 22.4616 94.6152 22.3388 94.6152 22.0196C94.6152 21.6758 94.7385 21.5284 95.1082 21.5284C95.5765 21.5775 96.0447 21.553 96.5623 21.553ZM97.6714 12.6388C97.7207 13.0071 97.77 13.6456 97.9179 14.2595C98.189 15.4137 98.7559 16.4205 99.865 16.9854C101.64 17.8694 103.636 17.059 104.449 15.1436C104.967 13.9403 105.041 12.6633 104.918 11.3863C104.819 10.4777 104.597 9.61823 104.08 8.85696C102.798 6.9415 100.087 6.86783 98.7066 8.68506C97.8686 9.76557 97.6961 11.0425 97.6714 12.6388Z" fill="#45C299"/>
<path d="M116.763 16.8784C116.763 16.7295 116.789 16.6303 116.789 16.5558C116.789 14.4963 116.815 12.4119 116.789 10.3524C116.763 9.01242 116.352 7.87099 114.99 7.27545C112.755 6.30771 110.289 7.64766 110.16 10.0298C110.032 12.1142 110.109 14.2233 110.083 16.3077C110.083 16.4814 110.083 16.6551 110.083 16.8784C110.623 16.8784 111.111 16.8784 111.625 16.8784C111.985 16.8784 112.139 17.0025 112.139 17.3747C112.139 17.7469 111.985 17.8462 111.625 17.8462C110.238 17.8214 108.85 17.8214 107.463 17.8462C107.103 17.8462 106.949 17.7469 106.923 17.3747C106.923 17.0273 107.077 16.8784 107.437 16.8784C107.925 16.9032 108.439 16.8784 108.927 16.8784C108.927 11.866 108.927 6.87843 108.927 1.86602C108.388 1.86602 107.9 1.84121 107.386 1.86602C107.052 1.89084 106.923 1.71714 106.923 1.41937C106.923 1.12161 107 0.923096 107.36 0.923096C108.105 0.94791 108.85 0.94791 109.595 0.923096C110.006 0.923096 110.135 1.09679 110.135 1.469C110.135 3.40449 110.135 5.31516 110.135 7.25064C110.135 7.39952 110.135 7.5484 110.135 7.77173C110.392 7.47396 110.546 7.22582 110.777 7.0025C112.062 5.86106 113.577 5.66255 115.196 6.13401C116.737 6.58066 117.534 7.67247 117.842 9.13649C117.945 9.63277 117.971 10.1539 117.971 10.6501C117.996 12.536 117.971 14.4219 117.971 16.3077C117.971 16.4814 117.971 16.6303 117.971 16.8536C118.484 16.8536 118.973 16.8536 119.461 16.8536C119.82 16.8536 120 16.9529 120 17.3499C120 17.7469 119.795 17.7965 119.461 17.7965C118.073 17.7965 116.686 17.7965 115.299 17.7965C114.939 17.7965 114.759 17.6973 114.759 17.3251C114.759 16.9777 114.913 16.8288 115.273 16.8288C115.761 16.9032 116.249 16.8784 116.763 16.8784Z" fill="#45C299"/>
<path d="M93.4264 17.4025C93.9469 17.4025 94.4426 17.4025 94.9135 17.4025C95.2853 17.3775 95.3845 17.5525 95.3845 17.9027C95.3845 18.2528 95.2605 18.3778 94.9135 18.3528C94.2196 18.3278 93.5008 18.3278 92.8068 18.3528C92.4846 18.3528 92.3607 18.2278 92.3855 17.9027C92.4103 17.5525 92.3855 17.2024 92.3855 16.9273C91.9146 17.2774 91.4684 17.7276 90.9479 18.0027C89.5847 18.703 88.1472 18.803 86.7097 18.3028C85.5448 17.9027 84.8012 17.1024 84.6525 15.8519C84.479 14.4264 84.9004 13.251 86.1396 12.4507C87.255 11.7504 88.4942 11.6504 89.7582 11.8255C90.6257 11.9505 91.4436 12.2506 92.3607 12.5007C92.3111 11.5504 92.3359 10.525 92.1376 9.54964C91.9146 8.37421 91.0719 7.72398 89.9317 7.47389C88.7916 7.22379 87.7011 7.39886 86.6353 7.82401C86.437 7.89904 86.3379 8.02408 86.3627 8.24917C86.3875 8.79937 86.3627 9.32456 86.3627 9.87476C86.3627 10.2749 86.1644 10.3499 85.8422 10.3249C85.5448 10.3249 85.2474 10.3249 85.2721 9.87476C85.2969 9.1745 85.2721 8.44924 85.2969 7.74898C85.2969 7.57392 85.4209 7.32383 85.5696 7.2488C87.3045 6.27345 89.1386 5.99835 91.0471 6.6986C92.5342 7.2488 93.3273 8.44924 93.4017 9.9998C93.476 12.2756 93.4512 14.5515 93.4512 16.8273C93.4264 17.0023 93.4264 17.1774 93.4264 17.4025ZM89.1386 12.6758C88.2959 12.6758 87.5772 12.7758 86.9328 13.1509C86.0405 13.6761 85.6935 14.4764 85.7926 15.5018C85.8918 16.4521 86.4371 17.0274 87.3045 17.3275C87.6267 17.4275 87.9737 17.5025 88.2959 17.5525C89.1634 17.6276 90.0061 17.5275 90.7744 17.1024C92.0385 16.4271 92.3855 15.2767 92.3359 13.9262C92.3359 13.7011 92.2367 13.5761 92.0633 13.4761C91.1214 12.9509 90.1052 12.7008 89.1386 12.6758Z" fill="#45C299"/>
<path d="M79.0607 8.67833C79.1568 8.48481 79.2289 8.38805 79.2769 8.29129C80.0216 6.93667 81.1748 6.33193 82.6883 6.30774C83.0246 6.30774 83.0967 6.47707 83.0727 6.76734C83.0486 7.03343 83.1688 7.37208 82.7123 7.37208C80.7424 7.37208 79.4211 8.62995 79.2529 10.6619C79.0847 12.718 79.2048 14.7983 79.2048 16.927C79.397 16.927 79.6132 16.927 79.8295 16.927C80.3099 16.927 80.7904 16.927 81.2709 16.927C81.7273 16.927 81.9435 17.2415 81.7514 17.6769C81.7033 17.7736 81.5592 17.8462 81.4391 17.8462C79.8054 17.8462 78.1958 17.8462 76.5622 17.8462C76.2499 17.8462 76.2019 17.6527 76.1778 17.4108C76.1778 17.1689 76.2019 16.9512 76.5382 16.927C77.0427 16.927 77.5472 16.927 78.0517 16.927C78.0517 13.7581 78.0517 10.6619 78.0517 7.49303C77.5952 7.49303 77.1388 7.49303 76.6823 7.49303C76.346 7.49303 76.1538 7.39627 76.1538 7.00924C76.1538 6.6222 76.346 6.54964 76.6823 6.54964C77.331 6.57383 77.9556 6.57383 78.6042 6.54964C78.9166 6.54964 79.0367 6.67058 79.0127 6.98505C79.0367 7.51722 79.0607 8.04939 79.0607 8.67833Z" fill="#45C299"/>
</svg>
