<svg width="156" height="28" viewBox="0 0 156 28" fill="none" xmlns="http://www.w3.org/2000/svg">
<path d="M0 7.27968C0.229508 6.67949 0.721312 6.55314 1.31148 6.6479C1.90164 6.74267 2.22951 6.52155 2.39345 5.95295C2.59017 5.19482 2.91804 4.49987 3.21312 3.74174C3.37706 3.26791 3.7377 3.0152 4.2623 3.0152C5.96721 2.95203 6.00001 3.0152 6.00001 4.62623C6.00001 5.28959 6.00001 5.92136 6.00001 6.61631C6.91804 6.61631 7.80328 6.61631 8.68852 6.61631C9.40984 6.61631 9.63934 6.83744 9.67213 7.5008C9.70492 7.91145 9.67213 8.29051 9.67213 8.70117C9.63934 9.20659 9.37705 9.4593 8.85246 9.4593C7.93443 9.4593 7.0164 9.4593 6.03279 9.4593C6.03279 9.68042 6.00001 9.86995 6.00001 10.0279C6.00001 12.2075 6.00001 14.3871 6.03279 16.5667C6.03279 16.9142 6.06558 17.2933 6.16394 17.6408C6.36066 18.5252 7.11476 19.0623 8.16394 19.1254C8.5246 19.157 8.91804 19.1254 9.27869 19.157C9.70492 19.1886 9.96721 19.4097 10 19.852C10 20.3574 10 20.8312 10 21.3366C10 21.7157 9.77049 22 9.37705 22C8 21.9684 6.55738 22.0316 5.21312 21.7789C3.37706 21.4314 2.22951 19.9151 2.16394 18.1146C2.09836 15.4927 2.09837 12.8393 2.06558 10.2174C2.06558 9.9963 2.06558 9.80677 2.06558 9.52247C1.60656 9.52247 1.24591 9.52247 0.88525 9.52247C0.393447 9.52247 0.131154 9.26976 0.0983667 8.79593C0.0983667 8.48005 0.0327869 8.19575 0 7.87986C0 7.65874 0 7.46921 0 7.27968Z" fill="white"/>
<path d="M33.0529 19.0381C33.41 19.0381 33.7996 19.0381 34.1892 19.0381C34.6762 19.0703 34.9683 19.3279 34.9683 19.8108C34.9683 20.2937 34.9683 20.8088 34.9683 21.2917C34.9359 21.7103 34.6762 21.9678 34.2541 21.9678C32.079 21.9678 29.9363 21.9678 27.7611 21.9678C27.2742 21.9678 27.0469 21.6781 27.0144 21.2273C26.982 20.8732 27.0144 20.5191 27.0144 20.1649C27.0144 19.1991 27.2417 19.0059 28.2156 19.0059C28.4754 19.0059 28.7675 19.0059 29.0922 19.0059C29.0922 15.7865 29.0922 12.6315 29.0922 9.37989C28.7026 9.37989 28.313 9.37989 27.9235 9.37989C27.3066 9.34769 27.0469 9.09014 27.0144 8.47845C27.0144 8.05993 26.982 7.6414 27.0144 7.19068C27.0469 6.70777 27.3066 6.41802 27.8261 6.41802C29.0922 6.41802 30.3583 6.41802 31.6245 6.41802C32.2088 6.41802 32.4685 6.67558 32.4685 7.28726C32.4685 7.6414 32.4685 7.99554 32.501 8.34967C32.501 8.34967 32.5335 8.38187 32.5659 8.41406C33.1178 7.57701 33.8321 6.86874 34.7736 6.48241C37.9226 5.22684 42.4353 6.28925 42.8573 11.2471C43.0521 13.5973 42.9547 15.9475 42.9547 18.2977C42.9547 18.523 42.9547 18.7484 42.9547 19.0381C43.3767 19.0381 43.7339 19.0381 44.091 19.0381C44.7727 19.0703 45 19.2957 45 19.9718C45 20.3903 45 20.8088 45 21.2595C45 21.7103 44.7403 22 44.2858 22C42.1106 22 39.9355 22 37.7279 22C37.3058 22 37.0461 21.7424 37.0136 21.2917C37.0136 20.841 37.0136 20.3581 37.0136 19.9074C37.0136 19.3601 37.2409 19.1025 37.8253 19.0703C38.2148 19.0381 38.6044 19.0703 39.0264 19.0703C39.0264 18.7484 39.0264 18.4908 39.0264 18.2333C39.0264 16.3016 39.0589 14.3378 39.0264 12.4061C38.994 10.2491 37.2733 8.96136 35.1307 9.47647C33.9619 9.76622 33.0529 10.7642 32.988 12.1164C32.8906 14.4022 32.923 16.6558 32.8906 18.9416C32.9555 18.9094 32.9555 18.9094 33.0529 19.0381Z" fill="white"/>
<path d="M51.5316 8.37832C52.1769 7.60546 52.8544 6.9292 53.7901 6.51057C56.8229 5.22247 61.469 6.22075 61.8562 11.2443C62.0498 13.5951 61.953 15.9459 61.953 18.2967C61.953 18.5221 61.953 18.7475 61.953 19.0374C62.3724 19.0374 62.7596 19.0052 63.1468 19.0374C63.7598 19.0696 63.9857 19.3272 63.9857 19.9068C64.0179 20.3577 63.9857 20.8085 63.9857 21.2271C63.9857 21.678 63.7276 21.9678 63.2759 21.9678C61.1141 21.9678 58.9524 21.9678 56.7584 21.9678C56.339 21.9678 56.0809 21.7102 56.0486 21.2593C56.0486 20.8085 56.0486 20.3255 56.0486 19.8746C56.0486 19.3272 56.2745 19.0696 56.8552 19.0374C57.2424 19.0052 57.6296 19.0374 58.0167 19.0374C58.0167 18.8441 58.049 18.7153 58.049 18.5865C58.049 16.5256 58.0813 14.4646 58.049 12.4358C58.0167 10.2139 56.3067 8.92576 54.1773 9.441C53.0157 9.73083 52.1123 10.7613 52.0478 12.1138C51.951 14.1104 51.9833 16.1391 51.951 18.1679C51.951 18.4255 51.951 18.6831 51.951 19.0374C52.3704 19.0374 52.7576 19.0374 53.1448 19.0374C53.661 19.0374 53.9837 19.3272 53.9837 19.8746C53.9837 20.3577 53.9837 20.8407 53.9514 21.3237C53.9191 21.7746 53.661 22 53.2416 22C51.0799 22 48.9504 22 46.7887 22C46.2725 22 46.0789 21.678 46.0466 21.1949C46.0143 20.7763 46.0143 20.3577 46.0466 19.9068C46.0789 19.3272 46.3047 19.0696 46.8855 19.0374C47.2727 19.0052 47.6598 19.0374 48.0793 19.0374C48.0793 15.8171 48.0793 12.6613 48.0793 9.4088C47.6921 9.4088 47.3049 9.4088 46.9178 9.4088C46.3047 9.3766 46.0466 9.11898 46.0143 8.50713C46.0143 8.0885 45.9821 7.66986 46.0143 7.21903C46.0466 6.73599 46.3047 6.44617 46.821 6.44617C48.0793 6.44617 49.3376 6.44617 50.5959 6.44617C51.1767 6.44617 51.4348 6.70379 51.4348 7.31563C51.5638 7.70206 51.5316 8.05629 51.5316 8.37832Z" fill="white"/>
<path d="M79.7676 19.4574C80.2847 19.4574 80.6985 19.4574 81.1122 19.4574C81.6638 19.4906 81.9741 19.7567 81.9741 20.2887C82.0086 20.7543 82.0086 21.2531 81.9741 21.7187C81.9397 22.2175 81.6638 22.5168 81.0777 22.5168C79.6986 22.5168 78.3539 22.5168 76.9748 22.5168C76.3887 22.5168 76.1129 22.2508 76.0784 21.6855C76.0439 21.4194 76.0784 21.1534 76.0784 20.7876C75.6991 21.1534 75.3888 21.4859 75.0096 21.7187C72.4927 23.2817 69.8723 23.4147 67.252 22.1178C65.5281 21.2864 64.9075 19.7234 65.0109 17.8944C65.1144 16.0654 66.0798 14.7019 67.7692 13.937C70.1482 12.8396 72.5961 13.0059 75.0785 13.671C75.2509 13.7375 75.4578 13.7708 75.6647 13.8373C75.6647 13.0392 75.7336 12.3075 75.6647 11.5759C75.4923 10.013 74.5269 9.14832 72.6996 9.04856C71.8721 9.0153 71.0101 9.21483 70.1827 9.34785C70.0447 9.38111 69.8724 9.61389 69.8724 9.78017C69.8379 10.2125 69.8723 10.6448 69.8379 11.1104C69.8034 11.6424 69.5276 11.9417 68.9759 11.9417C68.2864 11.975 67.5968 11.975 66.9072 11.9417C66.3556 11.9085 66.0798 11.6092 66.0798 11.0771C66.0798 10.2457 66.0453 9.38111 66.1142 8.54973C66.1487 8.21718 66.3556 7.75161 66.6314 7.61859C69.8034 5.88933 73.1133 5.42376 76.5266 6.82047C78.6643 7.6851 79.7331 9.38111 79.7676 11.6092C79.8365 14.0036 79.802 16.3979 79.802 18.759C79.7676 18.9586 79.7676 19.1581 79.7676 19.4574ZM72.0789 19.8897V19.8564C72.2858 19.8564 72.5272 19.8564 72.734 19.8564C74.5269 19.7234 75.7336 18.4597 75.6647 16.7637C75.6647 16.5974 75.5268 16.3314 75.3888 16.2981C73.9752 15.6996 72.5272 15.4335 71.0101 15.7993C69.8379 16.0654 69.1483 16.8302 69.1483 17.7946C69.1828 18.8255 69.8379 19.5239 71.0446 19.7899C71.3894 19.8564 71.7342 19.8564 72.0789 19.8897Z" fill="white"/>
<path d="M15.2302 15.4348C15.5228 18.6466 17.7984 20.5202 20.9842 19.5165C21.6994 19.2823 22.3495 18.8139 22.9672 18.379C23.6499 17.8771 23.8774 17.8436 24.4951 18.4793C24.7226 18.7135 24.9827 18.9477 25.2103 19.2154C25.6979 19.7841 25.6654 20.1856 25.1127 20.6875C23.3248 22.2934 21.2117 23.0629 18.8386 22.996C14.45 22.8956 11.5567 20.1187 11.0691 15.6355C10.8741 13.6281 11.0691 11.7211 11.9468 9.91439C12.8571 8.04081 14.2874 6.86982 16.2379 6.33452C18.0909 5.83266 19.9114 5.86612 21.6668 6.63563C24.105 7.70624 25.2428 9.81402 25.7629 12.3567C25.8929 13.0259 25.958 13.7285 25.9905 14.3976C26.0555 15.2006 25.7954 15.4682 24.9827 15.4682C22.122 15.4682 19.2612 15.4682 16.4005 15.4682C16.0104 15.4348 15.6528 15.4348 15.2302 15.4348ZM21.7969 12.7917C21.4068 9.81402 19.9114 8.91069 18.2535 9.01106C16.5305 9.11143 15.3927 10.617 15.2302 12.7917C17.4082 12.7917 19.5863 12.7917 21.7969 12.7917Z" fill="white"/>
<path d="M94.0065 19.4979C93.2013 20.8745 92.2351 21.8349 90.818 22.2191C88.0805 22.9875 85.182 22.1231 83.8937 19.0496C82.7021 16.2003 82.7021 13.2549 83.8937 10.4056C84.7633 8.32461 86.3736 7.14005 88.6602 7.01199C90.9469 6.88393 92.7182 7.78035 93.8776 9.76528C93.9098 9.82931 93.9742 9.89334 94.1031 10.0854C94.1031 9.31707 94.1353 8.70878 94.1031 8.06848C94.0709 7.55624 94.2319 7.36415 94.7794 7.36415C95.649 7.39617 96.5185 7.39617 97.4203 7.36415C97.839 7.36415 97.9678 7.55625 98 7.94043C98 8.35662 97.8712 8.58073 97.4203 8.58073C96.8084 8.58073 96.1643 8.58073 95.5201 8.58073C95.5201 8.86886 95.5201 9.06095 95.5201 9.28506C95.5201 13.447 95.5201 17.609 95.5201 21.7709C95.5201 23.2436 95.2303 24.6203 94.2963 25.8368C93.2979 27.1494 91.9453 27.7897 90.3672 27.9498C88.1771 28.1739 86.1804 27.6617 84.5378 26.125C84.0225 25.6447 84.087 25.1325 84.7633 24.8764C84.9243 24.8123 85.2464 25.0044 85.4074 25.1645C86.9533 26.5732 88.7569 26.9894 90.7858 26.5412C92.5572 26.157 93.8454 24.6843 94.0065 22.7954C94.0709 21.7709 94.0065 20.6824 94.0065 19.4979ZM94.1675 14.6636C93.9742 13.6391 93.8776 12.5826 93.5556 11.5901C92.9114 9.50916 91.3655 8.32461 89.3366 8.26058C87.4042 8.19655 85.7939 9.34909 85.0532 11.4301C84.2802 13.7031 84.2802 16.0082 85.182 18.2493C85.8905 20.0421 87.211 21.0986 89.2077 21.1306C91.2367 21.1626 92.5572 20.0741 93.3301 18.3133C93.9098 17.1928 94.0387 15.9442 94.1675 14.6636Z" fill="#45C299"/>
<path d="M125.531 26.8188C125.531 20.7532 125.531 14.7834 125.531 8.68585C124.922 8.68585 124.314 8.68585 123.705 8.68585C123.128 8.68585 123 8.4943 123.032 7.91967C123.064 7.60043 123.224 7.4408 123.545 7.4408C124.474 7.4408 125.403 7.4408 126.332 7.4408C126.717 7.4408 126.877 7.60042 126.845 7.98351C126.845 8.71777 126.845 9.45203 126.845 10.0905C127.422 9.45203 127.934 8.68585 128.607 8.14314C130.914 6.25961 135.336 6.54693 136.97 10.1863C138.38 13.3149 138.348 16.5073 136.842 19.6359C135.015 23.4348 129.312 23.6264 127.197 19.8913C127.165 19.8274 127.101 19.7636 126.973 19.6039C126.973 22.0621 126.973 24.3926 126.973 26.7869C127.934 26.7869 128.863 26.8188 129.825 26.7869C130.273 26.7869 130.466 26.9146 130.466 27.3934C130.466 27.8404 130.305 28 129.857 28C127.774 27.9681 125.691 27.9681 123.609 28C123.16 28 123 27.8404 123 27.4254C123 26.9784 123.16 26.7869 123.641 26.7869C124.25 26.8507 124.858 26.8188 125.531 26.8188ZM126.973 15.2303C127.037 15.7092 127.101 16.5392 127.293 17.3373C127.646 18.8378 128.383 20.1466 129.825 20.8809C132.132 22.0302 134.727 20.9767 135.784 18.4866C136.457 16.9223 136.553 15.2622 136.393 13.6022C136.265 12.421 135.977 11.3036 135.304 10.314C133.638 7.82389 130.113 7.72812 128.319 10.0905C127.229 11.4952 127.005 13.1552 126.973 15.2303Z" fill="#45C299"/>
<path d="M151.792 20.7419C151.792 20.5484 151.825 20.4194 151.825 20.3226C151.825 17.6452 151.859 14.9355 151.825 12.2581C151.792 10.5161 151.257 9.03226 149.487 8.25806C146.582 7 143.375 8.74194 143.208 11.8387C143.041 14.5484 143.141 17.2903 143.108 20C143.108 20.2258 143.108 20.4516 143.108 20.7419C143.809 20.7419 144.444 20.7419 145.112 20.7419C145.58 20.7419 145.78 20.9032 145.78 21.3871C145.78 21.871 145.58 22 145.112 22C143.308 21.9677 141.505 21.9677 139.701 22C139.234 22 139.033 21.871 139 21.3871C139 20.9355 139.2 20.7419 139.668 20.7419C140.303 20.7742 140.971 20.7419 141.605 20.7419C141.605 14.2258 141.605 7.74194 141.605 1.22581C140.904 1.22581 140.269 1.19355 139.601 1.22581C139.167 1.25807 139 1.03226 139 0.645161C139 0.258064 139.1 0 139.568 0C140.536 0.0322581 141.505 0.0322581 142.473 0C143.008 0 143.175 0.225807 143.175 0.709678C143.175 3.22581 143.175 5.70968 143.175 8.22581C143.175 8.41935 143.175 8.6129 143.175 8.90322C143.509 8.51613 143.709 8.19355 144.01 7.90323C145.68 6.41935 147.65 6.16129 149.754 6.77419C151.758 7.35484 152.794 8.77419 153.194 10.6774C153.328 11.3226 153.361 12 153.361 12.6452C153.395 15.0968 153.361 17.5484 153.361 20C153.361 20.2258 153.361 20.4194 153.361 20.7097C154.029 20.7097 154.664 20.7097 155.299 20.7097C155.766 20.7097 156 20.8387 156 21.3548C156 21.871 155.733 21.9355 155.299 21.9355C153.495 21.9355 151.692 21.9355 149.888 21.9355C149.42 21.9355 149.187 21.8064 149.187 21.3226C149.187 20.871 149.387 20.6774 149.855 20.6774C150.489 20.7742 151.124 20.7419 151.792 20.7419Z" fill="#45C299"/>
<path d="M121.455 21.4232C122.131 21.4232 122.776 21.4232 123.388 21.4232C123.871 21.3907 124 21.6182 124 22.0734C124 22.5286 123.839 22.6911 123.388 22.6586C122.486 22.6261 121.551 22.6261 120.649 22.6586C120.23 22.6586 120.069 22.4961 120.101 22.0734C120.134 21.6182 120.101 21.1631 120.101 20.8055C119.489 21.2606 118.909 21.8458 118.233 22.2035C116.46 23.1138 114.592 23.2438 112.723 22.5936C111.208 22.0734 110.242 21.033 110.048 19.4074C109.823 17.5543 110.371 16.0262 111.982 14.9858C113.432 14.0755 115.043 13.9455 116.686 14.173C117.814 14.3356 118.877 14.7257 120.069 15.0509C120.005 13.8154 120.037 12.4824 119.779 11.2145C119.489 9.68641 118.394 8.84111 116.911 8.51599C115.429 8.19087 114.012 8.41845 112.626 8.97115C112.368 9.06869 112.239 9.23125 112.272 9.52386C112.304 10.2391 112.272 10.9219 112.272 11.6371C112.272 12.1573 112.014 12.2548 111.595 12.2223C111.208 12.2223 110.822 12.2223 110.854 11.6371C110.886 10.7268 110.854 9.78395 110.886 8.87362C110.886 8.64604 111.047 8.32092 111.241 8.22338C113.496 6.95542 115.88 6.59779 118.361 7.50812C120.295 8.22338 121.326 9.78395 121.422 11.7997C121.519 14.7583 121.487 17.7168 121.487 20.6754C121.455 20.903 121.455 21.1306 121.455 21.4232ZM115.88 15.2784C114.785 15.2784 113.851 15.4085 113.013 15.8962C111.853 16.5789 111.402 17.6193 111.531 18.9523C111.659 20.1877 112.368 20.9355 113.496 21.3256C113.915 21.4557 114.366 21.5532 114.785 21.6182C115.913 21.7158 117.008 21.5857 118.007 21.033C119.65 20.1552 120.101 18.6597 120.037 16.904C120.037 16.6114 119.908 16.4489 119.682 16.3188C118.458 15.6361 117.137 15.311 115.88 15.2784Z" fill="#45C299"/>
<path d="M102.779 10.0818C102.904 9.83019 102.998 9.7044 103.06 9.57862C104.028 7.81761 105.527 7.03145 107.495 7C107.932 7 108.026 7.22013 107.995 7.59748C107.963 7.9434 108.119 8.38365 107.526 8.38365C104.965 8.38365 103.247 10.0189 103.029 12.6604C102.81 15.3333 102.966 18.0377 102.966 20.805C103.216 20.805 103.497 20.805 103.778 20.805C104.403 20.805 105.028 20.805 105.652 20.805C106.246 20.805 106.527 21.2138 106.277 21.7799C106.214 21.9057 106.027 22 105.871 22C103.747 22 101.655 22 99.5309 22C99.1249 22 99.0625 21.7484 99.0312 21.434C99.0312 21.1195 99.0625 20.8365 99.4997 20.805C100.156 20.805 100.811 20.805 101.467 20.805C101.467 16.6855 101.467 12.6604 101.467 8.54088C100.874 8.54088 100.28 8.54088 99.6871 8.54088C99.2499 8.54088 99 8.41509 99 7.91195C99 7.40881 99.2499 7.31447 99.6871 7.31447C100.53 7.34591 101.342 7.34591 102.186 7.31447C102.592 7.31447 102.748 7.4717 102.716 7.8805C102.748 8.57233 102.779 9.26415 102.779 10.0818Z" fill="#45C299"/>
</svg>
